<svg xmlns="http://www.w3.org/2000/svg" width="800" height="500" viewBox="0 0 800 500">
  <defs>
    <linearGradient id="bg" x1="0" y1="0" x2="1" y2="1">
      <stop offset="0" stop-color="#0f1724"/>
      <stop offset="1" stop-color="#182338"/>
    </linearGradient>
  </defs>
  <rect width="800" height="500" fill="url(#bg)"/>
  <rect x="0" y="0" width="800" height="44" fill="#141b2b"/>
  <circle cx="24" cy="22" r="6" fill="#ef4444"/>
  <circle cx="46" cy="22" r="6" fill="#f59e0b"/>
  <circle cx="68" cy="22" r="6" fill="#4ade80"/>
  <rect x="60" y="80" width="210" height="340" rx="10" fill="#101827" stroke="#243247"/>
  <text x="80" y="112" font-family="sans-serif" font-size="14" fill="#e2e8f0" font-weight="bold">Pendientes</text>
  <rect x="80" y="130" width="170" height="52" rx="8" fill="#1e293b"/>
  <rect x="80" y="192" width="170" height="52" rx="8" fill="#1e293b"/>
  <rect x="80" y="254" width="170" height="52" rx="8" fill="#1e293b"/>
  <rect x="295" y="80" width="210" height="340" rx="10" fill="#101827" stroke="#243247"/>
  <text x="315" y="112" font-family="sans-serif" font-size="14" fill="#e2e8f0" font-weight="bold">En progreso</text>
  <rect x="315" y="130" width="170" height="52" rx="8" fill="#1e3a30"/>
  <rect x="315" y="192" width="170" height="52" rx="8" fill="#1e293b"/>
  <rect x="530" y="80" width="210" height="340" rx="10" fill="#101827" stroke="#243247"/>
  <text x="550" y="112" font-family="sans-serif" font-size="14" fill="#e2e8f0" font-weight="bold">Completadas</text>
  <rect x="550" y="130" width="170" height="52" rx="8" fill="#14532d" opacity="0.55"/>
  <rect x="550" y="192" width="170" height="52" rx="8" fill="#14532d" opacity="0.55"/>
  <rect x="550" y="254" width="170" height="52" rx="8" fill="#14532d" opacity="0.55"/>
  <text x="400" y="470" font-family="sans-serif" font-size="20" fill="#e2e8f0" font-weight="bold" text-anchor="middle">Gestor de Tareas</text>
</svg>
